<svg role='img' viewBox='0 0 512 512' xmlns='http://www.w3.org/2000/svg'><path d="M442 263.4c-22.84 22.4-97.49 88-186 88s-163-65.6-186-88a10.42 10.42 0 010-14.8c22.84-22.4 97.49-88 186-88s163 65.6 186 88a10.42 10.42 0 010 14.8z" fill="#b3deff"/><ellipse cx="256" cy="256" rx="79.46" ry="79.3" fill="#20a0ff"/><path d="M296.88 256A40.88 40.88 0 11256 215.2a40.82 40.82 0 0140.88 40.8z"/><g fill="#13ce66"><path d="M15.53 110.9a15.59 15.59 0 0015.53-15.5V31.1h64.43a15.55 15.55 0 00.1-31.1H15.53A15.53 15.53 0 000 15.5v79.9a15.53 15.53 0 0015.53 15.5zM416.41 31h64.43v64.3a15.53 15.53 0 0031.06 0V15.5A15.38 15.38 0 00496.47 0h-80.06a15.5 15.5 0 100 31zM496.47 401.1a15.53 15.53 0 00-15.53 15.5v64.3h-64.43a15.5 15.5 0 100 31h80A15.53 15.53 0 00512 496.4v-79.9a15.44 15.44 0 00-15.53-15.4zM95.59 480.9H31.16v-64.3a15.53 15.53 0 00-31.06 0v79.9A15.53 15.53 0 0015.63 512h80.06a15.53 15.53 0 0015.53-15.5 15.7 15.7 0 00-15.63-15.6zM304.7 29.8l-49.8 49.7-22.05-22a15.57 15.57 0 10-22 22l33.07 33a15.54 15.54 0 0011 4.5H256a15.16 15.16 0 009.92-4.5l60.82-60.7a15.57 15.57 0 10-22-22z"/></g><path d="M331.25 400.8a15.53 15.53 0 01-15.53 15.5H198a15.5 15.5 0 110-31h117.62a15.43 15.43 0 0115.63 15.5z" fill="#f90"/><path d="M395.47 456.5a15.53 15.53 0 01-15.53 15.5H145.58a15.5 15.5 0 110-31h234.26a15.55 15.55 0 0115.63 15.5z" fill="#f30"/></svg>